<?xml version="1.0" encoding="utf-8"?>
<!-- Generator: Adobe Illustrator 19.2.1, SVG Export Plug-In . SVG Version: 6.00 Build 0)  -->
<svg version="1.1"
	 id="svg4774" inkscape:version="0.91 r13725" sodipodi:docname="spacemacs-logo.svg" xmlns:cc="http://creativecommons.org/ns#" xmlns:dc="http://purl.org/dc/elements/1.1/" xmlns:inkscape="http://www.inkscape.org/namespaces/inkscape" xmlns:rdf="http://www.w3.org/1999/02/22-rdf-syntax-ns#" xmlns:sodipodi="http://sodipodi.sourceforge.net/DTD/sodipodi-0.dtd" xmlns:svg="http://www.w3.org/2000/svg"
	 xmlns="http://www.w3.org/2000/svg" xmlns:xlink="http://www.w3.org/1999/xlink" x="0px" y="0px" viewBox="0 0 666 666"
	 style="enable-background:new 0 0 666 666;" xml:space="preserve">
<style type="text/css">
	.st0{fill:url(#path4186_1_);}
	.st1{fill:url(#SVGID_1_);}
	.st2{fill:url(#path5256-9_1_);}
	.st3{opacity:0.8;fill:url(#path4234_1_);enable-background:new    ;}
	.st4{opacity:0.8;fill:url(#path6025-8_1_);enable-background:new    ;}
	.st5{fill:url(#path6023_1_);}
	.st6{fill:url(#path6025_1_);}
	.st7{opacity:0.488;}
	.st8{opacity:0.245;fill:url(#path5113-4-3_1_);enable-background:new    ;}
	.st9{opacity:0.245;fill:url(#path5113-4-3-7_1_);enable-background:new    ;}
	.st10{opacity:0.245;fill:url(#path5113-4-3-7-3_1_);enable-background:new    ;}
	.st11{opacity:0.245;fill:url(#path5113-4-3-7-3-1_1_);enable-background:new    ;}
	.st12{opacity:0.245;fill:url(#path5113-4-3-7-3-0_1_);enable-background:new    ;}
</style>
<sodipodi:namedview  bordercolor="#666666" borderopacity="1.0" id="base" inkscape:current-layer="layer1" inkscape:cx="395.86046" inkscape:cy="245.84063" inkscape:document-units="px" inkscape:pageopacity="0.0" inkscape:pageshadow="2" inkscape:window-height="1055" inkscape:window-maximized="1" inkscape:window-width="1920" inkscape:window-x="1366" inkscape:window-y="25" inkscape:zoom="0.7" pagecolor="#ffffff" showgrid="false" units="px">
	</sodipodi:namedview>
<radialGradient id="path4186_1_" cx="-481.7277" cy="-88.3475" r="28.5292" gradientTransform="matrix(10.8257 10.8257 10.5033 -10.5033 6373.4736 4500.5645)" gradientUnits="userSpaceOnUse">
	<stop  offset="0" style="stop-color:#C0C0DC"/>
	<stop  offset="0.1142" style="stop-color:#C0C0DD"/>
	<stop  offset="0.4787" style="stop-color:#A191BF"/>
	<stop  offset="1" style="stop-color:#625681"/>
</radialGradient>
<circle id="path4186" class="st0" cx="333" cy="342.7" r="317.5"/>
<linearGradient id="SVGID_1_" gradientUnits="userSpaceOnUse" x1="55.773" y1="391.0358" x2="603.5623" y2="391.0358">
	<stop  offset="0" style="stop-color:#EEEEEC"/>
	<stop  offset="8.374830e-02" style="stop-color:#EEEEEC"/>
	<stop  offset="0.3514" style="stop-color:#EEEEEC"/>
	<stop  offset="1" style="stop-color:#E0D5D5"/>
</linearGradient>
<path class="st1" d="M239.9,232.6 M247.4,163.2 M253.5,154.4 M272.5,259.3c-2,1.7-4.2,3.2-6.8,3c-2.3-0.1-4.5-1.7-6-3.7
	c-1.6-2.1-2.4-4.7-2.7-7.3c-0.2-2.5,0-5.1,1-7.2c1.9-4,6-5.7,9.8-7.1c-5.1-2.1-10.2,0.4-14.4,3.3c-5.2,3.6-10.2,8.2-13.1,14.5
	c-3,6.5-3.6,14.3-5.8,21.2c2.2-6.6,4.8-11.9,7.5-15.1c-0.6,7.5-2,13.9-3.8,19.1c-1.7,5-4.9,11.3-3.4,12.8c1.5,1.5,5,10,4.7,13.8
	c-0.3,4.3-0.6,11.8,4.9,13c-4-6.5,3-16.5,1.6-18.8c-1.9-3.3-6.7-10-4.5-15c0.1-2.4,3.3-3.8,8.8-3.7s13.5-7.7,20.7-14.5
	c-7.9,3.1-16.5,6.9-20.1,6.1c-4.4-0.8-6.8-8.4-1.8-11.9c1.5-1,6.3,1.7,9.7,3.2C264.2,267.5,270,264.5,272.5,259.3z M210,196.2
	 M195.1,190 M171.3,335.8c0.3,0,0.3,11.7,0.7,24.7c0.3,12.1,0.7,14.9,2.2,18.5c2.5,5.8,3.6,5.5,6.9,12.8c2.4,5.2,5.4,8.5,6.3,16.1
	c0.4,3.7,5.4,10.8,2.9,22.5c-1.6,7.2-6.5,20.2-20.4,34.3c-13.1,20.2-24.1,62.1-24.1,62.1s3.4-35.6,12.6-54.6
	c9.5-19.8,22.7-40.7,21.2-52.3c-0.5-3.8-2.7-20.1-10.8-22c-1.5-0.4-4.1-0.4-8.6,2.6c-16.3,10.9-18.8,35.6-19.3,40.4
	c-0.1,1-3.6,3.7-1.5,11c2.1,7.3-3.3,44.6-3.3,44.6s0-45.3-7.3-41.1c-5.4,3-10.1,9.1-9.6,17.3c-2.9,14.4-2.9,32.8-2.9,32.8
	s-7-19.7-6-33c1-13.3,4.1-23.5,6.2-27.3c2-3.8,6-5.7,9.9-11.7s2.5-20.9,10.3-35.2c1.1-2.1,4.6-10.4,21.2-31.5
	c4.1-5.2,6.9-8.2,9.3-14.9C170.5,342.4,171.1,335.9,171.3,335.8z M191.1,268c-0.2-0.7-5,6.7-14.1,10.4c-4.8,1.9-5.5,0.7-14.8,3.4
	c-7.2,2-11.2,3.9-13,4.8c-7.4,3.8-9.6,6.8-10.3,7.8c-0.5,0.7-0.7,1.1-2.8,6.3c-4.2,10.2-4.6,11.7-6.3,13.8c-1.2,1.6-2.7,3-5.9,5.7
	c-2.2,2-5.4,4.8-9.4,7.3c-6.7,4.1-12,5.2-11.9,5.6c0.1,0.4,5.7-0.4,11.9-2.8c5.5-2.1,9.3-4.7,12.1-6.5c3.5-2.3,6.3-4.3,9.3-7.5
	c3.3-3.5,2.9-4.4,7.7-10.8c4.6-6.3,7.7-9,9.4-10.3c1.9-1.5,7.1-5.7,9.8-4.1c0.6,0.4,1.3,1.1,1.5,1.8c0.3,0.9,0.4,2.1-0.6,4
	c-1.8,3.6-5.2,5.7-7.3,7.1c-5.1,3.3-6.1,3.4-8.9,5.1c-3.9,2.5-4.1,3.6-11.3,10.4c-6.3,6-5.7,4.7-10.2,9.2c-7.4,7.4-8.5,8.5-10.6,12
	c-2.1,3.5-3.2,6.2-2.7,9.8c0.6,3.6-0.1,3.2,1.5,10.8c1.5,6.6,2,8.1,3.2,13.6c1.7,7.2,2.5,10.8,2.6,15c0.1,4.7,0.2,8.9-2,13.2
	c-1.3,2.4-3.9,4.6-9,8.7c-7.6,6.1-11.5,9.2-17.2,11.3c-4.2,1.4-7.2,2.1-7.2,2.1s7.1,0.2,14.4-1.2c10-1.9,18.4-3.5,24.5-10.8
	c4.9-5.8,5.9-12.4,6.1-14.5c0.2-1.5,0.3-3.8-1-11.5c-1.7-10.1-2.8-11.6-3.9-18.2c-1.2-7.4-2.3-13.8,0.2-21.1
	c1.7-5,5.8-12.4,10.8-12.7c0.4,0,2.8-0.1,4.2,1.5c1.5,1.6,1.2,3.9,0.9,5.5c-0.2,1.1-0.8,4.8-5.2,10.2c-2.1,2.6-4.8,5.9-9.4,8.2
	c-4.8,2.5-6.7,1.6-13.9,4.1c0,0-4.8,1.9-10,4.4c-13.2,6.6-18.2,16.2-20.3,22.8c0,0,3-6.1,8.2-9.8c5-3.5,9.2-5.1,16.8-7.6
	c18-6,18-4.6,23.5-7.6c3.7-2.1,10.6-4.3,17.8-10.4c3.3-2.8,9.2-9.4,16.1-19.3c4.4-6.2,3.1-11.4,4.3-17.8
	c3.5-20.7,14.5-34.9,14.5-34.9l-5.8,3.8C178.2,283.7,191.4,268.7,191.1,268z M199.1,426.4c-0.6-0.1-1.3,8.7-6.1,20.8
	c-4.2,10.4-8.4,15.9-9.9,17.8c-4.1,5.1-5.2,4.5-8.7,8.8c-7,8.3-8.9,17.3-10.7,25.1c-1.1,4.8-2.8,13.2-1.7,23.6
	c2.1,18.9,12.6,32.9,13.9,32.3c0.9-0.4-2.7-7.8-4.9-23.4c-1.2-8.9-1.4-16.2-0.1-23.9c0.7-4.2,2.5-15,7.8-16.6
	c1.8-0.5,3.9,0.1,4.1,0.2c2.8,0.8,4.5,3,5.3,4.6c1.8,3.9-0.3,8.7-1.2,10.6c-4.8,11.2-7.8,23.3-8.8,31.4c-0.6,5.6-1.3,11.8,1.9,18.2
	c0.6,1.4,3.6,4.3,9.4,10.2c5.9,6.1,7.6,7.3,10.2,7.8c2.8,0.5,7.4,0.2,8.1,0.2c3.1-0.2,3.5-0.5,4.7-0.3c2.2,0.3,4.9,1.8,8.1,7.8
	c4.7,8.7,4.9,16.5,5.4,16.4c0.5-0.1,0.8-8.8-1.4-19.3c-1.6-7.5-3.6-12-5.8-16.9c-2.1-4.5-3.3-6.3-5.1-7.8c-3.1-2.8-5-2.4-8.2-4.7
	c-5-3.6-6.5-9.4-6.9-11.1c-2.4-9.1,2.3-16.8,1.4-17.1c-1.1-0.4-5.9,12.2-7.6,19.7c-0.4,1.9-0.7,3.8,0.1,5.8c0.9,2.4,2.5,2.4,3.3,4.6
	c1.1,2.9-0.1,6.8-1.4,7.1c-1.7,0.4-3.8-5.5-4.6-8.5c-0.8-2.6-2.3-8.1-0.8-14.9c1.4-6.5,4.1-6.7,9.6-17.8c2.5-5.2,4-8.2,4.9-12.5
	c1.2-5.7,0.6-10.1-0.8-17.4c-2.1-11.7-3.5-18.7-4.1-21.8C194.6,444.2,200,426.5,199.1,426.4z M209.2,430.9 M213.3,337.4
	c-3.7,5.2-1-8.1-10.6-5.7c-9.7,2.4-20.8,27-22.7,31.1s2.6,14.6,7.4,24.2c0.4,0.7,13.7,0.8,17-1c0,0,0.6-0.3,1.3-0.7
	c4.1-3.5,2-8.1,1.6-10.3c-1.7-8.7,10.9-11.4,13.6-17c2.7-5.6-2-40.8-2-40.8s-1.4,14.1-5.3,19.9C213.4,337.3,213.3,337.4,213.3,337.4
	z M380.8,323.6c0.1,0-23.2-7-30.6-6.3c-7.7,0.8-11.4,1.3-14,1.8c-19.9,4-46,13.6-46,13.6c0.6,3.6,7.4,8.4,14.7,13.2
	c0,0,5.1-0.8,11.4-6c6.9-5.3,14.7-8.3,23-11.1c5.6-1.9,11.3-3.8,17.1-4.7c6-0.9,12.5-0.3,18.5,0
	C376.6,324.2,380.8,323.6,380.8,323.6z M345.2,343.8c-13.9,2.4-17.2,5.1-25.9,9.3c-8.7,4.1-24.4,10.1-33.5,19.4
	c3.8,3.4,10.4,5.9,18,7.9c0,0,3.1-1.9,8.6-7.6c5.5-5.6,11.9-9.6,22.3-16.5c10.3-7,35.7-14.3,35.7-14.3
	C363.7,342.5,359.1,341.5,345.2,343.8z M342.8,362c0.9,0.7-20.7,23.2-29.2,29c-8.1,5.6-16.2,13.6-16.2,13.6c-1.4,2.2,9,23,12.6,21.8
	c3.1-1.1,8.2-22.4,14-29.8c5.9-7.4,6.2-9,10.2-15.5C338.4,374.8,342.8,362,342.8,362z M264.7,427.5c8.6-6.3,9.9-7.2,18-17.3
	c11.5-14.2,30.1-23.6,30.4-26.9c0,0-13.5,7.3-23,3c-9.5-4.3-10-10.9-10.2-13.4c-0.3-2.5,5.7-6.7,8.7-9.2c3-2.4,11.4-9.6,11.4-9.6
	c-4.1-3.3,3.2-7.2-5.2-4.4c-22.8,9.6-7.6-7.5-7.6-7.5c-7.1,1.2-25.3,15.8-40.5,27c2.2-1.1,11.5-6.1,18.8-4.3
	c7.2,1.8,6.8,9.1,1.6,10.5c-5.2,1.4-29.1,31.5-27.4,32.9c14.2-13.3,28.2-26.2,37.1-22.4c0,0,12.8,6.4,10,9.9
	c-2.9,3.5-32.6,32.6-45.9,46.5C240.8,442.2,255.9,433.8,264.7,427.5z M506,364.9c0,0,16.6-5.9,23.8-9.6c24-12.4,50.7-1.3,50.7-1.3
	l-29.5-11.4c0,0-9.9,3-19,3.7c-7.6,0.7-14.7,1.2-21.7-2.3c-5.5-2.8-5.7-5.5-11.1-9.6c-9.6-7.4-20.6-8.1-25.4-8.2
	c-20.2-1.1-35.5,11.1-35.5,11.1s11.2-5.6,25.7-4.2c5.7,0.6,6,1.7,14.4,2.7c5.7,0.6,8.9,0.4,10.5,2.9c1.4,2.2,1.4,5.8-0.3,7.9
	c-2.8,3.2-8.1,0-16.4,0.1c-11.9,0-21,7.5-21,7.5s15.8-3.8,28.9-1.9c2.2,0.3,5.2,0.9,7.1,1.3c7.2,1.5,9.4,2.3,11.3,3.5
	c2.6,1.5,3.8,2.8,4.2,3.1C504.9,362.1,506,364.9,506,364.9z M544.4,394c0,0,3.7,5.7,11.2,7.5c6.1,1.4,10.1,4,18.8-3.2
	c7.9-6.4-0.3-31.1-14.6-33.7c-19.6-3.6-40.3,2.3-40.3,2.3s16.4-10.9,35.3-8.4c4.4,0.6,20.9,2.7,29.4,16.3
	c1.1,1.8,11.7,19.2,0.9,31.6c-6.9,7.9-19.7,10.6-28.9,6.4C545.7,407.9,544.4,394,544.4,394z M511,305.4c-1.1-3.6-5.4-13-8.7-16.7
	c-4.4-5-9.4-6.8-14.6-8.7c-12.8-4.6-25.1-3.5-25.3-2.6c0,0.7,7,0.2,16,4.5c3,1.4,17.6,12.1,21.1,25.7c0,0-1.2,0.4-4.7-1.1
	c-3.6-1.5-10.7-4.7-12.7-7.1c-2.1-2.4-3.7-6.2-3.7-6.2s1.9,6.9,3,8.6c1.1,1.7,6.1,6.7,6.1,6.7s4.9,4.6,7.1,5.3s5.6,2.2,5.6,2.2
	s0.2,5.2,1.7,8.4c1.4,3.3,4.3,7.9,7.1,9.9c2.8,2,8,4.5,10.9,4.9c2.9,0.4,4-0.3,5.5-1c1.5-0.7,1.9-2.8,2.8-3.9
	c0.9-1.1,1.2-2.4,0.9-4.3c-0.3-1.9,0.1-2.3-1.1-6.4c-1.2-4-2.1-6-5.1-9.2c-3-3.2-5-5.1-8-6.6C511.9,306.2,511,305.4,511,305.4z
	 M220.8,426.1c-3.3-7-3.6-11.7-4.8-16.6c-2.4-9.4-1.8-8.1,2.6-13.6c3.4-4.3,2.6-3.7,6.5-5.2c5.3-2,15.7,1.1,15.7,1.1
	s-4.8-7.9-13-9.9c-7.5-1.9-16.5,5.5-22.1,8.9c-5.4,3.3-16.8-1-16.4,0.6c0,0,2.4,5.5,4.1,10.6c0.9,2.6,3.5,12.8,9.3,24.5
	c5.5,11.2,13.9,23.7,19,33.1c0.9,1.7,1.8,3.3,2.8,4.9s4.7,17.4,4.4,20.8c-0.3,3.4,0.2,4.6-0.8,8.8c-0.3,1.3-3.9,0.3-4.9-0.9
	c-2.7-3.4-11-19.4-11-19.4s2,17.8,5,25.2c0.9,2.2,1.2,3.1,5.4,9.6c-0.5,25.1,25.9,68.2,25.9,68.2s-13.5-56.4-9.3-60.8
	s22.6,13.5,22.6,13.5s-17.8-25.2-22.9-28.1c-0.6-2,2.7-13.6,5.1-13.3c12.1,1.6,24.3,21.7,34.8,25.7c0.3-1.4,1.9-6.8,1.9-6.8
	s3.9-20,1.7-17.3c-2.2,2.7-20.7-0.8-22-3.3c0,0,15.7-9.4,20.7-13.7c1.7-1.5,3.1-4.4-4.4-0.4c-7.5,4-17.6-0.9-30.6-3.1
	c-4-0.9-9.4-13.1-9.4-13.1s-7.1-23.4,2.4-33.7c5.9-4.5-2.4-2.4-2.4-2.4s-6.8,3-9,4.3C225.8,425.7,224.1,432.8,220.8,426.1z
	 M603.6,399.5c0,0-8.1,2.3-11.8,6.8c-3.8,4.5-3.7,8.6-7,11c-3.3,2.3-10.2,5-12.9,4.5c-2.8-0.5-4.1-0.8-4.1-0.8s-4.1,4.4-6.4,9.5
	c-2.4,5-5.4,10.2-5.3,16.5c0.2,6.4,0.5,11.5,2,15c1.5,3.6,3.2,6.7,3.2,6.7l11.4,12.1c0,0,2.2,1.8,3.2,4c1,2.1,2.7,11.1,2.7,11.1
	s1.7-9.1,1.9-13.8c0.2-4.8-0.4-8.6-0.4-8.6s-0.8-2.6-2.4-4.4c-1.6-1.8-6.5-6.8-6.5-6.8s-0.3,0-1.6-3c-1.3-3-0.6-4.8-0.3-10.6
	c0.4-5.7,0.1-6.5,3.9-9.8c3.8-3.3,6.8-4.5,6.8-4.5s1.8,5.1,1,9.6c-0.9,4.5-5.1,11.3-5.1,11.3l-4,4.8c0,0-10.7,8.7-12.6,10.3
	s-7.2,8.6-10.8,14.1s-5.2,7.1-8.8,15.8c-3.7,8.7-3.5,8.6-6.2,17.6c-2.6,9.1-3.5,20.5-3.5,20.5s3-15,4.9-18c1.9-3,3.7-6.3,6-9.7
	c2.2-3.4,5.7-7.5,11.5-13.5c5.8-6.1,7.4-5.7,14.7-12.6c7.3-6.8,12.3-9.8,18.2-18.5c6-8.8,9.6-14.2,10.2-20.8
	c0.6-6.6,1.8-11.2,1.8-19.7c0.1-8.6,0.1-16.1,0.1-16.1s0.3-1.9,2.3-4.8C601.7,401.8,603.6,399.5,603.6,399.5z M344.7,542.1
	c0,0,6.1-2.1,11.3,0.8c3.9,2.1,5.5,6.1,6,7.1c2.2,5.4-0.7,7.1,0.4,13.4c0.1,0.4,1.8,9.4,9.1,13.8c3.4,2.1,6.8,2.3,8.9,2.4
	c17.5,1.7,31.9,12.7,31.9,12.7s-10.4-8.5-21.7-15.7c-8-5.1-13.9-8.5-15.7-15c-0.4-1.4-1.4-4.9,0.6-7.8c2.7-4,8.7-3.6,9-3.5
	c3.4,0.3,5.8,2.2,7.7,3.7c1.2,1,4.7,4,11.5,16.3c2.2,3.9,5.6,6.8,5.6,6.8s3.5-0.8,7.4-1.4c2.5-0.4,6.1,0.3,13.3,1.7
	c5.8,1.1,8.7,1.7,11,2.8c4.8,2.3,7.5,5.4,7.5,5.4s-3.2-4.2-8.5-8.1c-5.5-3.9-10.7-5.9-13.9-7.2c-8.3-3.2-10.2-2.3-13.8-5.2
	c-1.1-1-6-4.9-5.6-10.5c0.2-3.5,2.7-7.4,6.3-8.3c2.6-0.7,5.1,0.6,9.8,3.7c15.4,9.8,24.2,14,24.2,14s4.1-1.9,8.7-1.9
	c4-0.1,5.5,1.2,8.6,0.4c2.8-0.8,3.1-2.1,5.9-3.4c2.8-1.2,5.5-1.3,9.7-0.8c11.6,1.3,21.2,5.4,21.2,5.4s-7.2-3.4-18.1-8.7
	c-7.9-3.8-10.1-3.9-15-5c-3.1,1.2-4.5,2.4-10,3.4c-7.1,1.4-12.9-1-14.9-1.8c-3.1-1.3-7.7-3.1-9.1-7.2c-0.1-0.4-1.2-3.6,0.6-5.6
	c0.8-0.9,2.2-1.4,7-1.1c5.5,0.3,8.1,1.3,11.9,1.9c4.5,0.6,7.9,0.3,11-0.1c10-1,18-5.9,18-5.9s-6.1,1.9-15.6,1.4
	c-3-0.2-8.9-0.7-15.6-3.2c-5.6-2.1-15.8-7.3-19.3-11.7c-0.3-0.4-1.3-1.8-3.1-2.4c-2.1-0.7-4.1,0.2-4.5,0.4
	c-4.6,2.1-7.9,10.3-7.9,10.3s-18.2,6.2-27.6,8.9c-7.8,2.3-16.7,1.3-32.8,1.4C346.5,538.9,344.7,542.1,344.7,542.1z M256.9,507.6
	c0,0,9.8,9.4,14,17.7c4.3,8.2,7.7,19.8,6.8,30.3c-1,10.5-2.1,12.8-2.1,12.8s10.5,10.6,19.3,11.6c8.8,1,32.8-4.9,38.5-1.9
	c5.7,3,10.2,5.4,10.2,5.4s-3.5-6.3-7.8-8.7s-8.7-0.8-14.6-0.9c-6-0.1-15.5-1.1-19.3-3.6c-3.8-2.5-9.4-11-7.8-14.2
	c1.4-3.3,9.8-9.1,14.1-6.8c4.3,2.3,9.2,3.3,12.9,9.2c3.6,5.9,3.9,21.8,6.9,29.8s7.4,20.5,12,27.2c4.6,6.7,12,16.3,12,16.3
	s-8.5-13.4-11.1-22.9c-2.6-9.5-6.9-23.4-7.2-26.1c-0.4-2.6,0.2-10.3,1.5-19.3c1.4-9,2.5-18.3,2.5-18.3c-1.8-4.4-4.3-7.3-7.4-8.2
	c0,0-7.8-1.5-22.5-3.8c-14.7-2.3-27.4-7.4-35.9-14.6C263.3,511.3,256.9,507.6,256.9,507.6z M431.7,482.7
	c-11.2,8.2-16.4,17.6-15.8,28.3c0,0-8.5,3.4-11.1,8c-2.6,4.5-1.6,5.6-6.4,7.8c-4.7,2.2-28.9,5.8-47.7,4.1
	c-18.8-1.7-44.9-5.9-57.4-10.4c-12.6-4.6-4.2-15.5-4.2-15.5s13.6,3.9,25.5,7.2c1.5,0.4,12.9-5.8,25.1-12.6
	c12.2-6.8,32.8-10.2,32.8-10.2s-17.2,6.7-27.3,14.8c-8.6,7-17.8,11.5-17.1,11.6c1.7,0.3,3.5,0.7,5.5,1.1c11.8,2.5,28,6.2,44.2-0.1
	c19-7.3,22.6-15.6,27.5-19.6C414.4,489.7,431.7,482.7,431.7,482.7z M429.4,510.6c0,0,1.7-11,5.3-16.4s10-11.7,16.4-13
	c6.3-1.4,14.4-0.5,19.4-1.1c5-0.5,14.3-1.5,21.9-4.9c0,0,4.7-1,9.2-4.6c4.5-3.7,12.8-12.3,12.8-12.3s-3.6,8.7-4.2,11.1
	c-0.6,2.3-2.1,2.6-5.6,6.1c-3.5,3.5-12,9.4-13.9,14.8c-2,5.5-2.9,5.4-2.9,5.4l-4-3.1c0,0-0.2-2.9-5.2-3.3c-5-0.3-12.6,0.1-16.5,1.5
	c-3.8,1.2-8.6,2.7-10.6,4c-2.1,1.3-4,3.2-4,3.2s6.2,1.2,11.6-0.4c5.4-1.6,16.1-5.9,16.4-6.9c0.3-1,8.2-6.7,8.2-6.7l3,6.9
	c0,0-5.1,7.6-9.1,11.2c-4.1,3.7-5.1,6.3-13.4,8.1c-8.3,1.6-10.7,4.6-17.1,2.7c-6.4-1.9-8.3-4.9-11.2-3.8
	C432.6,510.1,429.4,510.6,429.4,510.6z M460.8,472.6c0,0,3.7-8,14.8-14.7c11.1-6.6,25.5-15.2,30.1-27.1c4.6-11.9,7.3-26.9,5.2-42
	c-2.1-15.1-4.3-19.5-4.3-19.5s3.4,20.9,0.7,35.9c-2.7,15-10.8,22.2-18.4,28.7c-7.6,6.5-22.6,23-23.1,26.2
	C465.4,463.2,460.8,472.6,460.8,472.6z M480,360.2c0,0-7.2,16.6-6.5,30.3s3.2,28.2,5.1,36.8c1.9,8.6,1.9,11.6,1.9,11.6
	s3.1-7.8,3.9-14.7s-8.1-23.5-6.7-33.4c1.4-9.9,5.9-17,5.7-23.5C483.1,360.6,480,360.2,480,360.2z M482.2,469.2c0,0-4.3,0.3,2.4-6.5
	c6.6-6.8,10.4-1.4,19-17.6s14.2-16.9,16.6-25.9c2.7-9.5,7.4-1.8,1.3,8.3c-5.5,9.3-6.8,11.7-12.2,18.2c-5.3,6.5-2.5,10.8-9,15.4
	C493.8,465.8,482.2,469.2,482.2,469.2z M496.2,365.8c0,0-3.2,2.7-3.2,11.7c0,9,4.7,21.6,3,28.2c-1.8,7.1-2.4,15.8-5,16.4
	c-2.6,0.6,2.3-7.6,0.2-13.4c-2.1-5.8-2.4-24.9-2.4-24.9s-0.8-7,0.8-11.6C491.4,367.5,496.2,365.8,496.2,365.8z M204.7,197.4
	c-15.7,3.4-20.2,8.6-20.9,13.7l20.4,2.8c-5.2,1-13.8,1.9-18.7,4.1c-3.3,1.4,14.8,2.2,14.8,2.2s-6.7,3-14.3,5.8
	c-4.2,1.5-8.8,2.4-12.2,4c-4.7,2.3-5.6,4.4-5.9,5.5c12.4-0.7,19.2,1.4,30.8-2.6c11.5-4,25.7-2.5,33.4,0.4c0,0-28.6,4.9-44.1,20.6
	c-15.5,15.8-34.6,24.2-34.6,24.2c-7.5,4-13.1,9.7-17.4,16.5c-3.7,8-7.5,15-12,18.6c3.3-9.5,5.9-22.4,12.1-28.6l7.8-10.1
	c-12.7,2.3-24.4,5.4-30.2,13.7c-3.2,13-17.2,23.7-31.9,34.3c9.2-12.3,21.2-25.3,23.3-37c0.4-2.1-0.8-6.8-3.8-5.4
	c-1.5,0.6-13.8,11.8-24.6,23.6c-10.8,11.8-20.2,24.3-20.2,24.3l14.9-29.1l10.7-13.4c6.1-7.4,15.3-13.6,26.2-19.4
	c23.1,0.3,44.1-5.3,62.4-18.4c-10.8-6.3-12.1-1.5-26.8,1.6c-14.7,3.1-21.5,1.1-21.5,1.1s12.2-1.6,22.3-10.7c4.5-4.2,10-9.6,14.7-12
	c7.7-4.1,7.9-14.6,6.7-15.4c-4.4-2.8-9.1-4.2-14.5-4.1c-15.4,1.6-20.8,3-30.6,7.6c-12,7.3-26.4,12.5-40,16.6
	c10-8.1,19.1-12.8,16.2-17.5c-2.9-4.7-41.6,5.3-41.6,5.3c9.2-5.8,15.2-11.7,24.2-13c0.4,1,28.6,0.5,61.3-6c4.3-0.8-2.2-4.6-2.2-4.6
	s10.4-1.3,7.6-3c-3.2-2.2-12.3-7.4-10.7-7.7c5.2-0.8,39,11.4,40.1,10.9c0,0,8.3-3.4,10.6-4.2c2.3-0.8,6.2-1.9,8.3-2.6
	c6.4-2.3,41.3-1.4,47.8-4.2c0.1-3.5-0.5-3.8,1.3-8c1.6-2.9,6.3-4.8,11.5-0.8c1.7,0.8,3.5,0.6,5.3-0.7c3.1-4.1,6.5-7.7,7.3-11
	c-0.7-2.5-2.1-3.6-4-4c0.2-3.4,1.4-6.1,3.3-8.3c2.5-2.1,5.1-3.1,7.7-2.5c6.3,2.7,11.8,6.6,17,10.9c-2.3,2-5.1,2.8-8.5,2
	c5.9,8.7,9.6,16.2,8.9,21.4c-3.1-6.2-6.2-10-9.8-8.5l2,12.8c-3.4-5.1-8.5-9.5-9.7-8.8c-2,1.2-12.4,21.7-12.9,30.7
	c2.7,2,12.6-7.2,16-10.2c1.1-1.8,1.8-4.3,2.2-7.1c0.8,2.3,1.7,4.3,2.7,5.6c1.9-2.5,3.2-5.1,3.8-8c1.5,2.4,2.8,3.8,4,3.7
	c2.2-2,4.3-6.6,4.2-7.8c-0.1-1.2-1.2-8-1.2-8c3.7,7.3,7.7,25.6,7.9,30.3c0.2,4.8,0.3,9.6,1,19.2c0.5,5.3,3.6,12.3,7.4,19.6
	c-6.6-7.1-11.8-14.9-14.5-24.4c1.8-6.7-1.8-7.4-2.6-8.1c-3.8-4.1-12,2.2-10.1,6.1c-4.2-10.6-8.1-7.5-12,0.7c-0.7-6.3-1.5-5-4.4-5.1
	c-2.9-0.1-12.8,6.2-13.7,8.4c-1.1,2.7-16.7,23.7-15,20.4c-0.1,0.2,1.1-5.9,0.8-5.7c-0.3,0.3-6.3,2.1-6.6,2.5c0,0-1.3,1.1-1.6,1.3
	c-6.4,8.1-12.9,14.8-15.4,20.1c-1.3,6.4-1.4,12.4,1.9,13.4c3.2,1,7.9-7.8,7.9-7.8l7.3-14.3c-3.7,11.6-6.5,22.9-7,33.9
	c3.6,8.8,4.9,17,5.4,24.9c0.2,3.3-1.4,6.5-2.1,10s-1.8,11.4-1.1,19l-2.2-12.3c-0.4-9.5-3.2-21.1-5.7-23c-2.5-1.9-7.4-1.1-10.6-0.7
	c-3,0.4-5.9,8.6-5,10.2l1.2,5.9c-1.8-2.6-4.6-3.9-9.1-3.7c-3,1-5.5,3.6-7.6,7.2c-3.7,6.5-5.2,13.9-5.5,21.8c-2-0.2-3.3-0.3-4.3,0.6
	c-1.4,1.6-1.8,6.3-2.4,9c-2-6.8-0.8-30.7,0.7-40c1.6-9.3,6.4-23.1,9.9-31c10-14.8,19.5-27.7,27.9-34.1l12.6-11.1l12.5-9.6
	c0,0,12.9-10.1,14.7-15.1c0.3-0.9,0.6-1.8,1-2.8c4.2-11.9,10.1-29.4,11.8-33.5c-2.9,3.9-8.1,7.1-9.7,11.2c-2,5.5-2,14.2-2.6,15.3
	c-0.3,0.6-7.6,6.4-15.3,10.5c-8.3,4.5-17,7.3-15.7,5.6c1.7-2.2,6.6-3.6,11.4-6.1c8.4-4.4,17.3-10.2,16.3-14.2
	c-0.5-2.1-0.4-8.9-1.2-10.1c-0.8-0.1-1.9,1.1-3,3.2c0.2,2.2-2.4,9-1.6,10.4c0.6,1.1-1.4,4.4-2.6,6.4c-0.2,0.2,0,1.4-3.4,2.9
	c-3.4,1.5-3.3,0.9-4.7,0.6c-1.4-0.3-3.6-4.7-3.6-4.7c-4.6,3.5-5.5,6.1-4.9,7.4c1.5,3-23.3-1.4-23.3-1.4s16.8-4.2,17.7-8
	c1-3.8,17.5-4.6,19.6-9.6c-0.4-1.3-25.6-5.7-30.8-4.5C208.4,196.5,204.7,197.4,204.7,197.4z"/>
<linearGradient id="path5256-9_1_" gradientUnits="userSpaceOnUse" x1="-273.2442" y1="-142.9142" x2="-225.6975" y2="-160.2469" gradientTransform="matrix(6.3333 2.2051 2.2051 -6.3333 2061.7971 -280.2149)">
	<stop  offset="0" style="stop-color:#EEEEEC"/>
	<stop  offset="8.374830e-02" style="stop-color:#EEEEEC"/>
	<stop  offset="0.3514" style="stop-color:#EEEEEC"/>
	<stop  offset="1" style="stop-color:#E0D5D5"/>
</linearGradient>
<path id="path5256-9" inkscape:connector-curvature="0" sodipodi:nodetypes="ccccccsccccccc" class="st2" d="M448.1,258.2
	c143.7,193.1,99.7,106.2,82.9,190.1c-1.7,1.5-3.5,3-5.3,4.3c-0.1-0.2-0.2-0.4-0.3-0.7c-0.1-0.2-0.2-0.3-0.3-0.5
	c0.4-0.3,0.8-0.6,1.2-1c7-71.3,39.9-2.4-98.5-182.7C337.3,149.7,248.4,100.2,168.9,70c-44.8-17-80.6-15.4-103.2,4.7
	C37.4,100,36.7,120,54.3,190.6c-2.7,3.8-2.7,6.3-5.8,10.7C22.9,114.1,27.7,51.7,61.1,21.5c21-18.9,46.9-21.5,86.2-10
	C267.6,50.4,384.2,174,448.1,258.2L448.1,258.2z"/>
<linearGradient id="path4234_1_" gradientUnits="userSpaceOnUse" x1="175.8617" y1="173.3396" x2="269.1271" y2="109.9602" gradientTransform="matrix(2.212 1.672 2.0682 -1.7535 -563.9785 339.4753)">
	<stop  offset="0" style="stop-color:#351347"/>
	<stop  offset="1" style="stop-color:#5C3566;stop-opacity:0"/>
</linearGradient>
<path id="path4234" inkscape:connector-curvature="0" sodipodi:nodetypes="cccccccc" class="st3" d="M86,181.7
	c-1.8-4.8-3.7-12.6-2.8-12.3c2.6,0.9,98.6,117.8,101.9,121.7c36.4,71.7,63.9,137,92.2,209.8c21.1,54.9,57.4,152,71.7,170
	c0.6,0.7,1.2,1.4,1.6,1.9c-28.2-7.1-170.4-105.1-170.4-105.1C165.9,442.9,138.4,332.9,86,181.7L86,181.7z"/>
<linearGradient id="path6025-8_1_" gradientUnits="userSpaceOnUse" x1="318.3394" y1="514.524" x2="388.4867" y2="575.019" gradientTransform="matrix(0.567 1.4953 1.3986 -0.417 -445.0728 -127.33)">
	<stop  offset="0" style="stop-color:#351E47"/>
	<stop  offset="1" style="stop-color:#5C3566;stop-opacity:0"/>
</linearGradient>
<path id="path6025-8" inkscape:connector-curvature="0" class="st4" d="M465.5,114.5c2.7,3.2,9.8,25.2,11.9,28.1
	c5.3,7.4,6.2,9,16.1,18.8c25.7,25.4,72,64.6,72,64.6s30,23.5,37.4,29.2c-17.9-20-32.3-49.2-58.8-78.9
	C511.8,159.5,483.4,129.7,465.5,114.5C465.6,114.4,465.5,114.7,465.5,114.5L465.5,114.5z"/>
<linearGradient id="path6023_1_" gradientUnits="userSpaceOnUse" x1="229.9836" y1="143.3762" x2="291.4958" y2="241.215" gradientTransform="matrix(1.8991 0.8694 0.8694 -1.8991 -344.0482 468.0842)">
	<stop  offset="0" style="stop-color:#EEEEEC"/>
	<stop  offset="8.374830e-02" style="stop-color:#EEEEEC"/>
	<stop  offset="0.3514" style="stop-color:#EEEEEC"/>
	<stop  offset="1" style="stop-color:#E0D5D5"/>
</linearGradient>
<path id="path6023" inkscape:connector-curvature="0" class="st5" d="M431.8,91.2c2.6,0.6,27.3,26.3,36.3,37.9
	c15.9,20.3,22,32.1,30.7,59c22.7,70,37.7,127.1,50.3,191.9c6.3,32.5,17.9,91.5,19.4,102.8c0.2,1.5-0.2,3.4-0.3,3.8
	c-0.5-0.5-1.9-1.9-7.7-7c-17.1-15-50.9-37.5-84.2-56c-41.6-23-82.5-42.7-174-83.7c-83.5-37.4-122-55.2-152.2-70.4l-27.7-13.8
	l-18.7-44.5c-12.4-25.4-22.6-46.6-22.5-47c0-0.4,3.7,3.2,8.2,8c50.2,54,157.6,102.9,271.6,124c40.6,7.5,89.9,7.5,107.4,4.5
	c3.4-0.6,5.9-1.1,7.3-1.6h0.1c0.4-1.2,0.7-2.5,1-3.5c10.9-46-8.3-138.7-40.2-194c-3.1-5.4-5.3-10-5-10.4
	C431.6,91.2,431.6,91.2,431.8,91.2L431.8,91.2z"/>
<linearGradient id="path6025_1_" gradientUnits="userSpaceOnUse" x1="-245.0524" y1="52.0905" x2="-362.6134" y2="97.57" gradientTransform="matrix(-1.9231 -9.685999e-02 0.1006 -1.9972 -20.2968 379.1658)">
	<stop  offset="0" style="stop-color:#FFFFFF"/>
	<stop  offset="0.1142" style="stop-color:#FFFFF2"/>
	<stop  offset="0.4787" style="stop-color:#D2ACD2"/>
	<stop  offset="1" style="stop-color:#123069"/>
</linearGradient>
<path id="path6025" inkscape:connector-curvature="0" class="st6" d="M429.8,90c2.6,0.7,44.6,29.5,48.1,35.9
	c8.8,16.3,14.2,29.7,22.8,57.3c29.7,96.7,50,195.8,66.3,295.5c-16.4-54.6-48.9-114.5-91.2-179.5c0.1-0.3,0.4-1,0.5-1.5
	c10.9-47.2-9.7-138.8-41.1-195.5c-3-5.5-5.9-11.8-5.5-12.2C429.7,90,429.7,90,429.8,90L429.8,90z"/>
<g id="layer9" inkscape:groupmode="layer" inkscape:label="craters" sodipodi:insensitive="true" class="st7">
	
		<radialGradient id="path5113-4-3_1_" cx="-794.6497" cy="-672.1244" r="169" gradientTransform="matrix(4.791897e-02 -0.2424 -0.3626 -0.2699 -69.9343 171.7882)" gradientUnits="userSpaceOnUse">
		<stop  offset="0" style="stop-color:#C2C6DB"/>
		<stop  offset="0.3397" style="stop-color:#BAB1E0"/>
		<stop  offset="0.4441" style="stop-color:#8D77A3"/>
		<stop  offset="0.5522" style="stop-color:#675A84"/>
		<stop  offset="1" style="stop-color:#050846"/>
	</radialGradient>
	<path id="path5113-4-3" class="st8" d="M110.2,529.6c-8.6-16.3-2.3-25.1,13.9-19.7c16.3,5.4,36.4,22.9,45,39.2s2.3,25.1-13.9,19.7
		S118.7,545.9,110.2,529.6z"/>
	
		<radialGradient id="path5113-4-3-7_1_" cx="-1418.7538" cy="-102.8056" r="169" gradientTransform="matrix(-0.1221 -0.3563 -0.3594 5.969134e-02 129.8852 76.2422)" gradientUnits="userSpaceOnUse">
		<stop  offset="0" style="stop-color:#C2C6DB"/>
		<stop  offset="0.3397" style="stop-color:#BAB1E0"/>
		<stop  offset="0.4441" style="stop-color:#8D77A3"/>
		<stop  offset="0.5522" style="stop-color:#675A84"/>
		<stop  offset="1" style="stop-color:#050846"/>
	</radialGradient>
	<path id="path5113-4-3-7" class="st9" d="M316.5,583.3c-14.5-11-16.6-28.9-4.5-40c12-11.1,33.5-11.2,48.1-0.2
		c14.5,11,16.6,28.9,4.5,40C352.5,594.2,331,594.3,316.5,583.3z"/>
	
		<radialGradient id="path5113-4-3-7-3_1_" cx="-3476.4661" cy="1645.2716" r="169" gradientTransform="matrix(-0.1565 -9.182584e-02 -0.1565 0.12 213.417 43.6754)" gradientUnits="userSpaceOnUse">
		<stop  offset="0" style="stop-color:#C2C6DB"/>
		<stop  offset="0.3397" style="stop-color:#BAB1E0"/>
		<stop  offset="0.4441" style="stop-color:#8D77A3"/>
		<stop  offset="0.5522" style="stop-color:#675A84"/>
		<stop  offset="1" style="stop-color:#050846"/>
	</radialGradient>
	<path id="path5113-4-3-7-3" class="st10" d="M490.8,569.5c-10,0.1-15.9-5.6-13.2-12.8c2.7-7.2,13.1-13.2,23.1-13.3
		s15.9,5.6,13.2,12.8C511.2,563.4,500.8,569.4,490.8,569.5z"/>
	
		<radialGradient id="path5113-4-3-7-3-1_1_" cx="-2725.699" cy="-263.6437" r="169" gradientTransform="matrix(-7.854682e-02 -0.1785 -0.2032 2.032798e-02 -30.2399 117.8842)" gradientUnits="userSpaceOnUse">
		<stop  offset="0" style="stop-color:#C2C6DB"/>
		<stop  offset="0.3397" style="stop-color:#BAB1E0"/>
		<stop  offset="0.4441" style="stop-color:#8D77A3"/>
		<stop  offset="0.5522" style="stop-color:#675A84"/>
		<stop  offset="1" style="stop-color:#050846"/>
	</radialGradient>
	<path id="path5113-4-3-7-3-1" class="st11" d="M224.2,602.2c-8.6-5.8-10.2-14.6-3.6-19.8c6.6-5.2,18.8-4.7,27.4,1.1
		s10.2,14.6,3.6,19.8S232.7,608,224.2,602.2z"/>
	
		<radialGradient id="path5113-4-3-7-3-0_1_" cx="-4581.7969" cy="1855.627" r="169" gradientTransform="matrix(-0.1133 -7.047993e-02 -0.118 0.1002 96.7058 110.9712)" gradientUnits="userSpaceOnUse">
		<stop  offset="0" style="stop-color:#C2C6DB"/>
		<stop  offset="0.3397" style="stop-color:#BAB1E0"/>
		<stop  offset="0.4441" style="stop-color:#8D77A3"/>
		<stop  offset="0.5522" style="stop-color:#675A84"/>
		<stop  offset="1" style="stop-color:#050846"/>
	</radialGradient>
	<path id="path5113-4-3-7-3-0" class="st12" d="M389.9,627.4c-7.4,0.3-11.6-4.2-9.4-10.1c2.2-5.9,9.9-10.9,17.3-11.2
		s11.6,4.2,9.4,10.1C405,622,397.2,627.1,389.9,627.4z"/>
</g>
</svg>
